<?xml version="1.0" encoding="UTF-8" standalone="no"?>
<!-- Created with Inkscape (http://www.inkscape.org/) -->

<svg
   width="42.031582mm"
   height="42.172134mm"
   viewBox="0 0 42.031582 42.172134"
   version="1.1"
   id="svg1"
   xml:space="preserve"
   inkscape:version="1.3.2 (091e20e, 2023-11-25, custom)"
   sodipodi:docname="clock.svg"
   xmlns:inkscape="http://www.inkscape.org/namespaces/inkscape"
   xmlns:sodipodi="http://sodipodi.sourceforge.net/DTD/sodipodi-0.dtd"
   xmlns="http://www.w3.org/2000/svg"
   xmlns:svg="http://www.w3.org/2000/svg"><sodipodi:namedview
     id="namedview1"
     pagecolor="#ffffff"
     bordercolor="#666666"
     borderopacity="1.0"
     inkscape:showpageshadow="2"
     inkscape:pageopacity="0.0"
     inkscape:pagecheckerboard="0"
     inkscape:deskcolor="#d1d1d1"
     inkscape:document-units="mm"
     inkscape:zoom="0.70822811"
     inkscape:cx="-112.25197"
     inkscape:cy="-55.772991"
     inkscape:window-width="1920"
     inkscape:window-height="991"
     inkscape:window-x="-9"
     inkscape:window-y="-9"
     inkscape:window-maximized="1"
     inkscape:current-layer="layer1" /><defs
     id="defs1" /><g
     inkscape:label="Layer 1"
     inkscape:groupmode="layer"
     id="layer1"
     transform="translate(-51.220708,-101.92429)"><g
       id="g2"><path
         style="fill:#000000"
         d="m 69.479347,143.93269 c -8.864244,-1.20712 -15.939374,-7.7384 -17.86561,-16.4923 -0.684298,-3.10984 -0.451509,-8.02521 0.515315,-10.88097 2.806226,-8.28889 9.949846,-13.86266 18.685376,-14.57918 5.570876,-0.45694 11.97918,1.91689 16.083243,5.95773 10.257685,10.09966 7.741408,27.12651 -4.985811,33.7374 -3.778308,1.96256 -8.414996,2.80443 -12.432513,2.25732 z m 7.540625,-2.50493 c 3.128287,-0.81548 5.882804,-2.42425 8.361034,-4.88328 2.525356,-2.50578 3.872261,-4.65577 4.950639,-7.90242 0.572735,-1.72433 0.675943,-2.52436 0.688338,-5.33576 0.01051,-2.38304 -0.116636,-3.78791 -0.454956,-5.02709 -2.476167,-9.06957 -11.222368,-15.05377 -20.4666,-14.00337 -7.232563,0.82182 -13.497036,5.88355 -15.857247,12.81275 -0.960127,2.81877 -1.191395,7.40869 -0.517161,10.26395 1.751786,7.41851 8.070423,13.29121 15.593191,14.4927 1.853528,0.29604 5.782469,0.0831 7.702762,-0.41748 z m -5.660494,-2.45864 c -0.381285,-0.71244 0.199311,-1.45369 1.04511,-1.33431 0.52181,0.0737 0.646634,0.2445 0.646634,0.88503 0,0.66432 -0.115744,0.80712 -0.709809,0.87575 -0.486286,0.0562 -0.795503,-0.0781 -0.981935,-0.42647 z m -7.837286,-2.18177 c -0.21821,-0.68752 0.288637,-1.31022 1.066453,-1.31022 0.667971,0 1.016242,0.60902 0.77783,1.36019 -0.225319,0.70992 -1.615055,0.67226 -1.844283,-0.05 z m 15.590566,0.17816 c -0.317088,-0.82631 0.0037,-1.35609 0.821254,-1.35609 0.70153,0 0.790127,0.089 0.790127,0.79375 0,0.66963 -0.114014,0.80687 -0.729109,0.87762 -0.465293,0.0535 -0.784528,-0.0606 -0.882272,-0.31528 z m -21.098689,-5.36894 c -0.364976,-0.36497 -0.15708,-1.40282 0.333611,-1.66543 0.977832,-0.52332 1.846328,0.42102 1.294339,1.40737 -0.241117,0.43085 -1.289044,0.59697 -1.62795,0.25806 z m 26.864028,-0.14111 c -0.476215,-0.47621 -0.382732,-1.21647 0.1925,-1.52432 0.646228,-0.34585 1.274521,-0.11078 1.486163,0.55605 0.313721,0.98845 -0.937035,1.7099 -1.678663,0.96827 z m -28.881951,-7.73958 c -0.702854,-0.84689 0.329468,-2.14783 1.246222,-1.5705 0.916075,0.5769 0.58971,1.95467 -0.463021,1.95467 -0.255405,0 -0.607846,-0.17288 -0.783201,-0.38417 z m 15.388201,0.0667 c -0.355128,-0.35513 -0.461307,-10.70544 -0.115011,-11.21118 0.357277,-0.52177 1.097526,-0.62726 1.509646,-0.21514 0.332039,0.33204 0.404532,1.23088 0.404532,5.01584 v 4.61131 h 3.297982 c 3.027194,0 3.321236,0.0435 3.581184,0.52917 0.201213,0.37597 0.201213,0.68236 0,1.05833 -0.264213,0.49369 -0.55399,0.52917 -4.322017,0.52917 -2.788524,0 -4.137104,-0.0983 -4.356316,-0.3175 z m 15.610417,0 c -0.741628,-0.74163 -0.02017,-1.99238 0.968277,-1.67866 0.666823,0.21164 0.901899,0.83993 0.556048,1.48616 -0.307855,0.57523 -1.04811,0.66872 -1.524325,0.1925 z M 58.15518,116.10963 c -0.664572,-0.66457 -0.169886,-1.79917 0.784441,-1.79917 0.256818,0 0.590193,0.2303 0.740834,0.51178 0.354222,0.66187 0.350002,0.69723 -0.141882,1.18912 -0.497156,0.49715 -0.952186,0.52948 -1.383393,0.0983 z m 26.680549,-0.0667 c -0.702854,-0.84689 0.329468,-2.14783 1.246222,-1.5705 0.916075,0.5769 0.589711,1.95466 -0.463021,1.95466 -0.255405,0 -0.607845,-0.17287 -0.783201,-0.38416 z M 63.538052,110.1144 c -0.256768,-0.809 0.113695,-1.36019 0.914212,-1.36019 0.800517,0 1.170979,0.55119 0.914211,1.36019 -0.104323,0.3287 -0.407642,0.4919 -0.914211,0.4919 -0.50657,0 -0.809889,-0.1632 -0.914212,-0.4919 z m 15.574706,0.1282 c -0.317088,-0.82632 0.0037,-1.3561 0.821254,-1.3561 0.70153,0 0.790127,0.089 0.790127,0.79375 0,0.66963 -0.114014,0.80687 -0.729109,0.87762 -0.465293,0.0535 -0.784528,-0.0606 -0.882272,-0.31527 z m -7.630137,-1.90416 c -0.505278,-0.50528 -0.514388,-0.67114 -0.07022,-1.27858 0.507005,-0.69337 1.6141,-0.46517 1.730095,0.35661 0.05611,0.39749 -0.09081,0.77978 -0.381299,0.99219 -0.607434,0.44417 -0.773297,0.43506 -1.278575,-0.0702 z"
         id="path1" /><path
         style="fill:#ffffff;stroke-width:45.1832;stroke-linejoin:round"
         d="m 252.00483,532.63091 c -19.00372,-6.47971 -34.73508,-20.53464 -43.41857,-38.7916 -8.73406,-18.36331 -7.91553,-42.29715 2.10075,-61.42551 5.68692,-10.86047 18.38432,-23.59684 29.51105,-29.60162 34.56344,-18.65292 78.98807,-3.91105 95.96921,31.84642 13.32597,28.06069 8.03064,58.28745 -14.08567,80.40376 -18.81848,18.81848 -46.24509,25.69446 -70.07677,17.56855 z m 24.49412,-7.23917 c 0.41804,-1.0894 -0.007,-3.03015 -0.94517,-4.31277 -2.34936,-3.21294 -6.57265,-1.34014 -6.57265,2.91462 0,2.62252 0.75634,3.37887 3.37887,3.37887 1.85838,0 3.72091,-0.89133 4.13895,-1.98072 z m -30.93088,-5.93621 c 1.2284,-0.47138 2.23345,-2.41975 2.23345,-4.32971 0,-2.95306 -0.57918,-3.40581 -3.87086,-3.02588 -4.27507,0.49344 -6.17321,4.93602 -2.97495,6.96285 2.309,1.46328 1.91092,1.42938 4.61236,0.39274 z m 60.1244,-4.08486 c 0,-2.79149 -0.71383,-3.52993 -3.41227,-3.52993 -1.87675,0 -3.68932,0.79423 -4.02793,1.76496 -1.08573,3.11257 0.58819,5.29491 4.06133,5.29491 2.66281,0 3.37887,-0.74807 3.37887,-3.52994 z m -81.30401,-17.09476 c 2.92728,-1.1233 2.88126,-7.06407 -0.0635,-8.19407 -2.82477,-1.08397 -6.17492,1.4946 -6.17492,4.75276 0,4.01809 1.94269,5.08974 6.23841,3.44131 z m 102.58185,-1.37926 c 1.31239,-1.58134 1.43687,-2.90074 0.42501,-4.50488 -2.07002,-3.28166 -4.11659,-3.58348 -6.71043,-0.98964 -1.72843,1.72843 -1.92659,2.93763 -0.8202,5.00494 1.77014,3.30755 4.60483,3.50285 7.10562,0.48958 z M 218.66066,467.36354 c 1.3094,-3.41223 -0.56125,-6.35388 -4.04054,-6.35388 -1.7753,0 -3.59354,0.95308 -4.04055,2.11796 -1.30939,3.41223 0.56125,6.35388 4.04055,6.35388 1.77529,0 3.59353,-0.95308 4.04054,-2.11796 z m 84.71847,0 c 2.00476,-5.22433 -0.37198,-6.35388 -13.36945,-6.35388 h -12.5567 v -16.33053 c 0,-16.43091 -1.2159,-21.79278 -4.94191,-21.79278 -4.18019,0 -5.26835,5.67679 -4.70744,24.55831 0.30237,10.1788 1.0462,19.30114 1.65295,20.27188 1.74172,2.78654 32.84198,2.46291 33.92255,-0.353 z m 31.25881,-2.11796 c 0,-2.58776 -0.84963,-3.65058 -3.18325,-3.98196 -1.90938,-0.27114 -3.52371,0.43517 -4.034,1.76497 -1.40585,3.66361 0.56463,6.6916 4.034,6.19895 2.33362,-0.33137 3.18325,-1.39419 3.18325,-3.98196 z m -109.48431,-26.0537 c 2.70698,-3.2617 1.20583,-7.1277 -2.76765,-7.1277 -2.23795,0 -3.66678,0.91139 -3.98019,2.53879 -0.48889,2.53861 1.96936,6.63904 3.98019,6.63904 0.5864,0 1.83185,-0.92255 2.76765,-2.05013 z m 102.24169,-1.09249 c 1.01186,-1.60414 0.88738,-2.92354 -0.42501,-4.50488 -2.50079,-3.01327 -5.33548,-2.81797 -7.10562,0.48958 -1.10639,2.06731 -0.90823,3.27651 0.8202,5.00494 2.59384,2.59384 4.64041,2.29202 6.71043,-0.98964 z M 247.09553,414.4145 c 0,-2.58777 -0.84964,-3.65059 -3.18326,-3.98196 -1.90938,-0.27114 -3.5237,0.43517 -4.03399,1.76497 -1.40586,3.66361 0.56462,6.6916 4.03399,6.19895 2.33362,-0.33137 3.18326,-1.39419 3.18326,-3.98196 z m 58.34215,0.35299 c 0.36511,-2.57079 -0.22514,-3.17694 -3.09361,-3.17694 -4.10765,0 -5.50188,1.60681 -4.24233,4.88915 1.31828,3.43537 6.78611,2.15918 7.33594,-1.71221 z m -29.4116,-5.27692 c 2.47556,-2.98287 0.70995,-6.37187 -3.31963,-6.37187 -3.9322,0 -5.946,3.67813 -3.57679,6.53285 2.09418,2.52334 4.71949,2.46206 6.89642,-0.16098 z"
         id="path2"
         transform="scale(0.26458333)" /></g></g></svg>
